<svg width="23" height="23" viewBox="0 0 23 23" fill="none" xmlns="http://www.w3.org/2000/svg">
<path id="Vector" fill-rule="evenodd" clip-rule="evenodd" d="M1.4375 11.5C1.4375 14.1687 2.49765 16.7282 4.38474 18.6153C6.27182 20.5023 8.83126 21.5625 11.5 21.5625C14.1687 21.5625 16.7282 20.5023 18.6153 18.6153C20.5023 16.7282 21.5625 14.1687 21.5625 11.5C21.5625 8.83126 20.5023 6.27182 18.6153 4.38474C16.7282 2.49765 14.1687 1.4375 11.5 1.4375C8.83126 1.4375 6.27182 2.49765 4.38474 4.38474C2.49765 6.27182 1.4375 8.83126 1.4375 11.5ZM23 11.5C23 14.55 21.7884 17.4751 19.6317 19.6317C17.4751 21.7884 14.55 23 11.5 23C8.45001 23 5.52494 21.7884 3.36827 19.6317C1.2116 17.4751 0 14.55 0 11.5C0 8.45001 1.2116 5.52494 3.36827 3.36827C5.52494 1.2116 8.45001 0 11.5 0C14.55 0 17.4751 1.2116 19.6317 3.36827C21.7884 5.52494 23 8.45001 23 11.5ZM8.41512 15.5293C8.28035 15.6643 8.09749 15.7402 7.90676 15.7403C7.71603 15.7404 7.53306 15.6648 7.39809 15.53C7.26313 15.3953 7.18724 15.2124 7.1871 15.0217C7.18697 14.8309 7.2626 14.648 7.39738 14.513L13.2868 8.625H9.30781C9.11719 8.625 8.93437 8.54927 8.79958 8.41448C8.66479 8.27969 8.58906 8.09687 8.58906 7.90625C8.58906 7.71563 8.66479 7.53281 8.79958 7.39802C8.93437 7.26323 9.11719 7.1875 9.30781 7.1875H15.0219C15.2125 7.1875 15.3953 7.26323 15.5301 7.39802C15.6649 7.53281 15.7406 7.71563 15.7406 7.90625V13.6203C15.7406 13.8109 15.6649 13.9938 15.5301 14.1285C15.3953 14.2633 15.2125 14.3391 15.0219 14.3391C14.8313 14.3391 14.6484 14.2633 14.5136 14.1285C14.3789 13.9938 14.3031 13.8109 14.3031 13.6203V9.64131L8.41512 15.5293Z" fill="#60D275"/>
</svg>
