<svg width="49" height="59" viewBox="0 0 49 59" fill="none" xmlns="http://www.w3.org/2000/svg">
<g id="Group 23">
<path id="Vector" fill-rule="evenodd" clip-rule="evenodd" d="M0.553612 13.5608C0.728656 13.383 0.936601 13.242 1.16554 13.1458C1.39447 13.0495 1.6399 13 1.88776 13C2.13563 13 2.38105 13.0495 2.60999 13.1458C2.83893 13.242 3.04687 13.383 3.22191 13.5608L24.5005 35.1185L45.7791 13.5608C45.9543 13.3833 46.1623 13.2425 46.3912 13.1465C46.6201 13.0504 46.8655 13.001 47.1132 13.001C47.361 13.001 47.6063 13.0504 47.8353 13.1465C48.0642 13.2425 48.2722 13.3833 48.4474 13.5608C48.6226 13.7382 48.7616 13.9489 48.8564 14.1808C48.9512 14.4127 49 14.6612 49 14.9122C49 15.1632 48.9512 15.4117 48.8564 15.6436C48.7616 15.8755 48.6226 16.0861 48.4474 16.2636L25.8346 39.169C25.6596 39.3467 25.4517 39.4878 25.2227 39.584C24.9938 39.6802 24.7484 39.7298 24.5005 39.7298C24.2526 39.7298 24.0072 39.6802 23.7783 39.584C23.5493 39.4878 23.3414 39.3467 23.1663 39.169L0.553612 16.2636C0.378125 16.0863 0.238895 15.8757 0.143897 15.6438C0.0488995 15.4119 0 15.1633 0 14.9122C0 14.6611 0.0488995 14.4125 0.143897 14.1806C0.238895 13.9487 0.378125 13.7381 0.553612 13.5608Z" fill="#04FF58"/>
<path id="Vector_2" fill-rule="evenodd" clip-rule="evenodd" d="M6.41803 0.440569C6.55021 0.300915 6.70723 0.190115 6.8801 0.114515C7.05297 0.0389146 7.23829 0 7.42545 0C7.61262 0 7.79794 0.0389146 7.97081 0.114515C8.14368 0.190115 8.3007 0.300915 8.43287 0.440569L24.5004 17.3772L40.5679 0.440569C40.7002 0.30114 40.8572 0.19054 41.0301 0.115082C41.2029 0.0396244 41.3882 0.000786581 41.5753 0.000786581C41.7624 0.000786581 41.9477 0.0396244 42.1205 0.115082C42.2934 0.19054 42.4504 0.30114 42.5827 0.440569C42.715 0.579997 42.82 0.745523 42.8915 0.927694C42.9631 1.10987 43 1.30512 43 1.5023C43 1.69948 42.9631 1.89473 42.8915 2.0769C42.82 2.25907 42.715 2.4246 42.5827 2.56403L25.5078 20.5594C25.3756 20.6991 25.2186 20.8099 25.0457 20.8855C24.8729 20.9611 24.6875 21 24.5004 21C24.3132 21 24.1279 20.9611 23.955 20.8855C23.7821 20.8099 23.6251 20.6991 23.493 20.5594L6.41803 2.56403C6.28552 2.42473 6.18039 2.25924 6.10866 2.07705C6.03692 1.89486 6 1.69955 6 1.5023C6 1.30505 6.03692 1.10973 6.10866 0.927544C6.18039 0.745355 6.28552 0.57987 6.41803 0.440569Z" fill="#009933"/>
<path id="Vector_3" fill-rule="evenodd" clip-rule="evenodd" d="M0.553612 32.5608C0.728656 32.383 0.936601 32.242 1.16554 32.1458C1.39447 32.0495 1.6399 32 1.88776 32C2.13563 32 2.38105 32.0495 2.60999 32.1458C2.83893 32.242 3.04687 32.383 3.22191 32.5608L24.5005 54.1185L45.7791 32.5608C45.9543 32.3833 46.1623 32.2425 46.3912 32.1465C46.6201 32.0504 46.8655 32.001 47.1132 32.001C47.361 32.001 47.6063 32.0504 47.8353 32.1465C48.0642 32.2425 48.2722 32.3833 48.4474 32.5608C48.6226 32.7382 48.7616 32.9489 48.8564 33.1808C48.9512 33.4127 49 33.6612 49 33.9122C49 34.1632 48.9512 34.4117 48.8564 34.6436C48.7616 34.8755 48.6226 35.0861 48.4474 35.2636L25.8346 58.169C25.6596 58.3467 25.4517 58.4878 25.2227 58.584C24.9938 58.6802 24.7484 58.7298 24.5005 58.7298C24.2526 58.7298 24.0072 58.6802 23.7783 58.584C23.5493 58.4878 23.3414 58.3467 23.1663 58.169L0.553612 35.2636C0.378125 35.0863 0.238895 34.8757 0.143897 34.6438C0.0488995 34.4119 0 34.1633 0 33.9122C0 33.6611 0.0488995 33.4125 0.143897 33.1806C0.238895 32.9487 0.378125 32.7381 0.553612 32.5608Z" fill="#60D275"/>
</g>
</svg>
