<svg width="40" height="48" viewBox="0 0 40 48" fill="none" xmlns="http://www.w3.org/2000/svg">
<path d="M4.66102 0.000270618H17.6071C21.5802 0.000270618 24.6079 0.301197 26.6887 0.916582C29.4824 1.74251 31.8864 3.21819 33.8785 5.34118C35.8819 7.45308 37.3955 10.0453 38.4417 13.1177C39.4768 16.1791 40 19.9667 40 24.4584C40 28.4138 39.5105 31.8103 38.5309 34.6707C37.3399 38.1679 35.6374 40.9948 33.4224 43.1511C31.753 44.7937 29.4943 46.0697 26.6555 46.9833C24.5306 47.6674 21.6915 48 18.1303 48H5.63765C1.38502 47.9364 0.00943473 45.2968 0 42.2361V4.16968C0.0242607 0.980448 1.91444 0 4.66129 0L4.66102 0.000270618Z" fill="#009933"/>
<path d="M24.7063 10.1285C24.8933 10.2345 25.0376 10.4005 25.116 10.5976C25.1947 10.7954 25.2025 11.0134 25.1391 11.2163L21.701 22.1876H28.0448C28.2317 22.1876 28.4136 22.2417 28.5694 22.3415C28.7252 22.442 28.8477 22.5853 28.9216 22.7538C28.996 22.9219 29.0175 23.1074 28.9858 23.2873C28.9533 23.4681 28.8684 23.6353 28.7397 23.7686L13.4682 39.7047C13.3204 39.859 13.1232 39.9595 12.9099 39.9902C12.6969 40.0208 12.4793 39.9796 12.2923 39.8725C12.1062 39.7664 11.9616 39.6005 11.884 39.4034C11.8053 39.2057 11.7975 38.9883 11.8609 38.7862L15.299 27.8125H8.95523C8.76826 27.8125 8.58639 27.7587 8.43057 27.6582C8.27476 27.5576 8.15226 27.4144 8.07838 27.2463C8.00397 27.0785 7.98248 26.8927 8.01418 26.712C8.04668 26.5321 8.13238 26.3648 8.26025 26.2316L23.5318 10.2955C23.6796 10.1409 23.876 10.0403 24.0895 10.0097C24.3023 9.97938 24.5194 10.0205 24.7063 10.1261V10.1282V10.1285Z" fill="white"/>
</svg>
