<svg width="239" height="68" viewBox="0 0 239 68" fill="none" xmlns="http://www.w3.org/2000/svg">
<path d="M71.0496 28.175C69.8996 28.175 68.8663 27.975 67.9496 27.575C67.0496 27.1583 66.3413 26.5917 65.8246 25.875C65.3079 25.1417 65.0413 24.3 65.0246 23.35H67.4496C67.5329 24.1667 67.8663 24.8583 68.4496 25.425C69.0496 25.975 69.9163 26.25 71.0496 26.25C72.1329 26.25 72.9829 25.9833 73.5996 25.45C74.2329 24.9 74.5496 24.2 74.5496 23.35C74.5496 22.6833 74.3663 22.1417 73.9996 21.725C73.6329 21.3083 73.1746 20.9917 72.6246 20.775C72.0746 20.5583 71.3329 20.325 70.3996 20.075C69.2496 19.775 68.3246 19.475 67.6246 19.175C66.9413 18.875 66.3496 18.4083 65.8496 17.775C65.3663 17.125 65.1246 16.2583 65.1246 15.175C65.1246 14.225 65.3663 13.3833 65.8496 12.65C66.3329 11.9167 67.0079 11.35 67.8746 10.95C68.7579 10.55 69.7663 10.35 70.8996 10.35C72.5329 10.35 73.8663 10.7583 74.8996 11.575C75.9496 12.3917 76.5413 13.475 76.6746 14.825H74.1746C74.0913 14.1583 73.7413 13.575 73.1246 13.075C72.5079 12.5583 71.6913 12.3 70.6746 12.3C69.7246 12.3 68.9496 12.55 68.3496 13.05C67.7496 13.5333 67.4496 14.2167 67.4496 15.1C67.4496 15.7333 67.6246 16.25 67.9746 16.65C68.3413 17.05 68.7829 17.3583 69.2996 17.575C69.8329 17.775 70.5746 18.0083 71.5246 18.275C72.6746 18.5917 73.5996 18.9083 74.2996 19.225C74.9996 19.525 75.5996 20 76.0996 20.65C76.5996 21.2833 76.8496 22.15 76.8496 23.25C76.8496 24.1 76.6246 24.9 76.1746 25.65C75.7246 26.4 75.0579 27.0083 74.1746 27.475C73.2913 27.9417 72.2496 28.175 71.0496 28.175ZM92.3475 14.3V28H90.0725V25.975C89.6391 26.675 89.0308 27.225 88.2475 27.625C87.4808 28.0083 86.6308 28.2 85.6975 28.2C84.6308 28.2 83.6725 27.9833 82.8225 27.55C81.9725 27.1 81.2975 26.4333 80.7975 25.55C80.3141 24.6667 80.0725 23.5917 80.0725 22.325V14.3H82.3225V22.025C82.3225 23.375 82.6641 24.4167 83.3475 25.15C84.0308 25.8667 84.9641 26.225 86.1475 26.225C87.3641 26.225 88.3225 25.85 89.0225 25.1C89.7225 24.35 90.0725 23.2583 90.0725 21.825V14.3H92.3475ZM98.4637 16.825C98.9137 16.0417 99.5803 15.3917 100.464 14.875C101.364 14.3417 102.405 14.075 103.589 14.075C104.805 14.075 105.905 14.3667 106.889 14.95C107.889 15.5333 108.672 16.3583 109.239 17.425C109.805 18.475 110.089 19.7 110.089 21.1C110.089 22.4833 109.805 23.7167 109.239 24.8C108.672 25.8833 107.889 26.725 106.889 27.325C105.905 27.925 104.805 28.225 103.589 28.225C102.422 28.225 101.389 27.9667 100.489 27.45C99.6053 26.9167 98.9303 26.2583 98.4637 25.475V34.5H96.1887V14.3H98.4637V16.825ZM107.764 21.1C107.764 20.0667 107.555 19.1667 107.139 18.4C106.722 17.6333 106.155 17.05 105.439 16.65C104.739 16.25 103.964 16.05 103.114 16.05C102.28 16.05 101.505 16.2583 100.789 16.675C100.089 17.075 99.522 17.6667 99.0887 18.45C98.672 19.2167 98.4637 20.1083 98.4637 21.125C98.4637 22.1583 98.672 23.0667 99.0887 23.85C99.522 24.6167 100.089 25.2083 100.789 25.625C101.505 26.025 102.28 26.225 103.114 26.225C103.964 26.225 104.739 26.025 105.439 25.625C106.155 25.2083 106.722 24.6167 107.139 23.85C107.555 23.0667 107.764 22.15 107.764 21.1ZM125.583 20.625C125.583 21.0583 125.558 21.5167 125.508 22H114.558C114.642 23.35 115.1 24.4083 115.933 25.175C116.783 25.925 117.808 26.3 119.008 26.3C119.992 26.3 120.808 26.075 121.458 25.625C122.125 25.1583 122.592 24.5417 122.858 23.775H125.308C124.942 25.0917 124.208 26.1667 123.108 27C122.008 27.8167 120.642 28.225 119.008 28.225C117.708 28.225 116.542 27.9333 115.508 27.35C114.492 26.7667 113.692 25.9417 113.108 24.875C112.525 23.7917 112.233 22.5417 112.233 21.125C112.233 19.7083 112.517 18.4667 113.083 17.4C113.65 16.3333 114.442 15.5167 115.458 14.95C116.492 14.3667 117.675 14.075 119.008 14.075C120.308 14.075 121.458 14.3583 122.458 14.925C123.458 15.4917 124.225 16.275 124.758 17.275C125.308 18.2583 125.583 19.375 125.583 20.625ZM123.233 20.15C123.233 19.2833 123.042 18.5417 122.658 17.925C122.275 17.2917 121.75 16.8167 121.083 16.5C120.433 16.1667 119.708 16 118.908 16C117.758 16 116.775 16.3667 115.958 17.1C115.158 17.8333 114.7 18.85 114.583 20.15H123.233ZM130.861 16.525C131.261 15.7417 131.828 15.1333 132.561 14.7C133.311 14.2667 134.219 14.05 135.286 14.05V16.4H134.686C132.136 16.4 130.861 17.7833 130.861 20.55V28H128.586V14.3H130.861V16.525ZM140.687 16.175V24.25C140.687 24.9167 140.829 25.3917 141.112 25.675C141.396 25.9417 141.887 26.075 142.587 26.075H144.262V28H142.212C140.946 28 139.996 27.7083 139.362 27.125C138.729 26.5417 138.412 25.5833 138.412 24.25V16.175H136.637V14.3H138.412V10.85H140.687V14.3H144.262V16.175H140.687ZM159.519 20.625C159.519 21.0583 159.494 21.5167 159.444 22H148.494C148.577 23.35 149.035 24.4083 149.869 25.175C150.719 25.925 151.744 26.3 152.944 26.3C153.927 26.3 154.744 26.075 155.394 25.625C156.06 25.1583 156.527 24.5417 156.794 23.775H159.244C158.877 25.0917 158.144 26.1667 157.044 27C155.944 27.8167 154.577 28.225 152.944 28.225C151.644 28.225 150.477 27.9333 149.444 27.35C148.427 26.7667 147.627 25.9417 147.044 24.875C146.46 23.7917 146.169 22.5417 146.169 21.125C146.169 19.7083 146.452 18.4667 147.019 17.4C147.585 16.3333 148.377 15.5167 149.394 14.95C150.427 14.3667 151.61 14.075 152.944 14.075C154.244 14.075 155.394 14.3583 156.394 14.925C157.394 15.4917 158.16 16.275 158.694 17.275C159.244 18.2583 159.519 19.375 159.519 20.625ZM157.169 20.15C157.169 19.2833 156.977 18.5417 156.594 17.925C156.21 17.2917 155.685 16.8167 155.019 16.5C154.369 16.1667 153.644 16 152.844 16C151.694 16 150.71 16.3667 149.894 17.1C149.094 17.8333 148.635 18.85 148.519 20.15H157.169ZM161.672 21.1C161.672 19.7 161.955 18.475 162.522 17.425C163.088 16.3583 163.863 15.5333 164.847 14.95C165.847 14.3667 166.955 14.075 168.172 14.075C169.372 14.075 170.413 14.3333 171.297 14.85C172.18 15.3667 172.838 16.0167 173.272 16.8V14.3H175.572V28H173.272V25.45C172.822 26.25 172.147 26.9167 171.247 27.45C170.363 27.9667 169.33 28.225 168.147 28.225C166.93 28.225 165.83 27.925 164.847 27.325C163.863 26.725 163.088 25.8833 162.522 24.8C161.955 23.7167 161.672 22.4833 161.672 21.1ZM173.272 21.125C173.272 20.0917 173.063 19.1917 172.647 18.425C172.23 17.6583 171.663 17.075 170.947 16.675C170.247 16.2583 169.472 16.05 168.622 16.05C167.772 16.05 166.997 16.25 166.297 16.65C165.597 17.05 165.038 17.6333 164.622 18.4C164.205 19.1667 163.997 20.0667 163.997 21.1C163.997 22.15 164.205 23.0667 164.622 23.85C165.038 24.6167 165.597 25.2083 166.297 25.625C166.997 26.025 167.772 26.225 168.622 26.225C169.472 26.225 170.247 26.025 170.947 25.625C171.663 25.2083 172.23 24.6167 172.647 23.85C173.063 23.0667 173.272 22.1583 173.272 21.125ZM195.891 14.05C196.958 14.05 197.908 14.275 198.741 14.725C199.575 15.1583 200.233 15.8167 200.716 16.7C201.2 17.5833 201.441 18.6583 201.441 19.925V28H199.191V20.25C199.191 18.8833 198.85 17.8417 198.166 17.125C197.5 16.3917 196.591 16.025 195.441 16.025C194.258 16.025 193.316 16.4083 192.616 17.175C191.916 17.925 191.566 19.0167 191.566 20.45V28H189.316V20.25C189.316 18.8833 188.975 17.8417 188.291 17.125C187.625 16.3917 186.716 16.025 185.566 16.025C184.383 16.025 183.441 16.4083 182.741 17.175C182.041 17.925 181.691 19.0167 181.691 20.45V28H179.416V14.3H181.691V16.275C182.141 15.5583 182.741 15.0083 183.491 14.625C184.258 14.2417 185.1 14.05 186.016 14.05C187.166 14.05 188.183 14.3083 189.066 14.825C189.95 15.3417 190.608 16.1 191.041 17.1C191.425 16.1333 192.058 15.3833 192.941 14.85C193.825 14.3167 194.808 14.05 195.891 14.05Z" fill="white"/>
<path d="M79.2246 57.0459H76.9496L67.7996 43.1709V57.0459H65.5246V39.5959H67.7996L76.9496 53.4459V39.5959H79.2246V57.0459ZM84.2777 41.1209C83.8444 41.1209 83.4777 40.9709 83.1777 40.6709C82.8777 40.3709 82.7277 40.0042 82.7277 39.5709C82.7277 39.1376 82.8777 38.7709 83.1777 38.4709C83.4777 38.1709 83.8444 38.0209 84.2777 38.0209C84.6944 38.0209 85.0444 38.1709 85.3277 38.4709C85.6277 38.7709 85.7777 39.1376 85.7777 39.5709C85.7777 40.0042 85.6277 40.3709 85.3277 40.6709C85.0444 40.9709 84.6944 41.1209 84.2777 41.1209ZM85.3777 43.3459V57.0459H83.1027V43.3459H85.3777ZM94.9051 43.1209C96.0884 43.1209 97.1217 43.3792 98.0051 43.8959C98.9051 44.4126 99.5717 45.0626 100.005 45.8459V43.3459H102.305V57.3459C102.305 58.5959 102.038 59.7042 101.505 60.6709C100.972 61.6542 100.205 62.4209 99.2051 62.9709C98.2217 63.5209 97.0717 63.7959 95.7551 63.7959C93.9551 63.7959 92.4551 63.3709 91.2551 62.5209C90.0551 61.6709 89.3467 60.5126 89.1301 59.0459H91.3801C91.6301 59.8792 92.1467 60.5459 92.9301 61.0459C93.7134 61.5626 94.6551 61.8209 95.7551 61.8209C97.0051 61.8209 98.0217 61.4292 98.8051 60.6459C99.6051 59.8626 100.005 58.7626 100.005 57.3459V54.4709C99.5551 55.2709 98.8884 55.9376 98.0051 56.4709C97.1217 57.0042 96.0884 57.2709 94.9051 57.2709C93.6884 57.2709 92.5801 56.9709 91.5801 56.3709C90.5967 55.7709 89.8217 54.9292 89.2551 53.8459C88.6884 52.7626 88.4051 51.5292 88.4051 50.1459C88.4051 48.7459 88.6884 47.5209 89.2551 46.4709C89.8217 45.4042 90.5967 44.5792 91.5801 43.9959C92.5801 43.4126 93.6884 43.1209 94.9051 43.1209ZM100.005 50.1709C100.005 49.1376 99.7967 48.2376 99.3801 47.4709C98.9634 46.7042 98.3967 46.1209 97.6801 45.7209C96.9801 45.3042 96.2051 45.0959 95.3551 45.0959C94.5051 45.0959 93.7301 45.2959 93.0301 45.6959C92.3301 46.0959 91.7717 46.6792 91.3551 47.4459C90.9384 48.2126 90.7301 49.1126 90.7301 50.1459C90.7301 51.1959 90.9384 52.1126 91.3551 52.8959C91.7717 53.6626 92.3301 54.2542 93.0301 54.6709C93.7301 55.0709 94.5051 55.2709 95.3551 55.2709C96.2051 55.2709 96.9801 55.0709 97.6801 54.6709C98.3967 54.2542 98.9634 53.6626 99.3801 52.8959C99.7967 52.1126 100.005 51.2042 100.005 50.1709ZM118.65 49.6709C118.65 50.1042 118.625 50.5626 118.575 51.0459H107.625C107.708 52.3959 108.166 53.4542 109 54.2209C109.85 54.9709 110.875 55.3459 112.075 55.3459C113.058 55.3459 113.875 55.1209 114.525 54.6709C115.191 54.2042 115.658 53.5876 115.925 52.8209H118.375C118.008 54.1376 117.275 55.2126 116.175 56.0459C115.075 56.8626 113.708 57.2709 112.075 57.2709C110.775 57.2709 109.608 56.9792 108.575 56.3959C107.558 55.8126 106.758 54.9876 106.175 53.9209C105.591 52.8376 105.3 51.5876 105.3 50.1709C105.3 48.7542 105.583 47.5126 106.15 46.4459C106.716 45.3792 107.508 44.5626 108.525 43.9959C109.558 43.4126 110.741 43.1209 112.075 43.1209C113.375 43.1209 114.525 43.4042 115.525 43.9709C116.525 44.5376 117.291 45.3209 117.825 46.3209C118.375 47.3042 118.65 48.4209 118.65 49.6709ZM116.3 49.1959C116.3 48.3292 116.108 47.5876 115.725 46.9709C115.341 46.3376 114.816 45.8626 114.15 45.5459C113.5 45.2126 112.775 45.0459 111.975 45.0459C110.825 45.0459 109.841 45.4126 109.025 46.1459C108.225 46.8792 107.766 47.8959 107.65 49.1959H116.3ZM123.928 45.5709C124.328 44.7876 124.894 44.1792 125.628 43.7459C126.378 43.3126 127.286 43.0959 128.353 43.0959V45.4459H127.753C125.203 45.4459 123.928 46.8292 123.928 49.5959V57.0459H121.653V43.3459H123.928V45.5709ZM132.154 41.1209C131.72 41.1209 131.354 40.9709 131.054 40.6709C130.754 40.3709 130.604 40.0042 130.604 39.5709C130.604 39.1376 130.754 38.7709 131.054 38.4709C131.354 38.1709 131.72 38.0209 132.154 38.0209C132.57 38.0209 132.92 38.1709 133.204 38.4709C133.504 38.7709 133.654 39.1376 133.654 39.5709C133.654 40.0042 133.504 40.3709 133.204 40.6709C132.92 40.9709 132.57 41.1209 132.154 41.1209ZM133.254 43.3459V57.0459H130.979V43.3459H133.254ZM136.281 50.1459C136.281 48.7459 136.564 47.5209 137.131 46.4709C137.698 45.4042 138.473 44.5792 139.456 43.9959C140.456 43.4126 141.564 43.1209 142.781 43.1209C143.981 43.1209 145.023 43.3792 145.906 43.8959C146.789 44.4126 147.448 45.0626 147.881 45.8459V43.3459H150.181V57.0459H147.881V54.4959C147.431 55.2959 146.756 55.9626 145.856 56.4959C144.973 57.0126 143.939 57.2709 142.756 57.2709C141.539 57.2709 140.439 56.9709 139.456 56.3709C138.473 55.7709 137.698 54.9292 137.131 53.8459C136.564 52.7626 136.281 51.5292 136.281 50.1459ZM147.881 50.1709C147.881 49.1376 147.673 48.2376 147.256 47.4709C146.839 46.7042 146.273 46.1209 145.556 45.7209C144.856 45.3042 144.081 45.0959 143.231 45.0959C142.381 45.0959 141.606 45.2959 140.906 45.6959C140.206 46.0959 139.648 46.6792 139.231 47.4459C138.814 48.2126 138.606 49.1126 138.606 50.1459C138.606 51.1959 138.814 52.1126 139.231 52.8959C139.648 53.6626 140.206 54.2542 140.906 54.6709C141.606 55.0709 142.381 55.2709 143.231 55.2709C144.081 55.2709 144.856 55.0709 145.556 54.6709C146.273 54.2542 146.839 53.6626 147.256 52.8959C147.673 52.1126 147.881 51.2042 147.881 50.1709Z" fill="white"/>
<path fill-rule="evenodd" clip-rule="evenodd" d="M1.03686 56.5184C5.40576 56.5601 13.0912 56.9329 17.0797 56.1835C22.0165 55.2564 24.8722 52.9627 25.2966 47.7547C25.3893 43.7465 24.6042 40.9698 22.6445 38.5773C21.8146 37.5644 20.725 36.7467 19.4395 35.9722C18.189 35.219 16.6454 34.8318 15.492 33.9989L25.3361 33.9374L25.3073 10.6047C21.2724 10.326 14.4078 10.3177 10.3813 10.6206C-3.21512 11.6456 -0.41337 24.3074 2.03911 27.7264C4.67761 31.4052 6.7512 31.1895 11.3578 33.0665L0.191776 33.1659L0.245685 56.4007L1.0361 56.5176L1.03686 56.5184Z" fill="white"/>
<path fill-rule="evenodd" clip-rule="evenodd" d="M28.5001 38.479C28.4569 49.6814 34.257 55.638 45.7343 55.0025L45.4989 33.6295C51.9384 33.0046 55.4842 30.5506 57.1569 25.1521C57.7514 22.3443 57.6216 20.3102 57.6261 17.3915L45.5194 17.3528L45.4344 10.6582L28.2959 10.6764L28.5009 38.479H28.5001Z" fill="white"/>
<mask id="mask0_157_252" style="mask-type:luminance" maskUnits="userSpaceOnUse" x="213" y="12" width="26" height="19">
<path d="M238.418 12.3658C229.62 10.6274 221.473 15.8415 213 12.3658V29.4201C222.124 31.9183 231.14 26.3789 238.418 29.4201V12.3658Z" fill="white"/>
</mask>
<g mask="url(#mask0_157_252)">
<path d="M221.691 7.36914H208.33V38.6527H221.691V7.36914Z" fill="#21CF8D"/>
<path d="M232.064 7.36914H218.703V38.6527H232.064V7.36914Z" fill="#FEFEFE"/>
<path d="M243.687 7.36914H230.326V38.6527H243.687V7.36914Z" fill="#21CF8D"/>
</g>
</svg>
