<svg width="58" height="47" viewBox="0 0 58 47" fill="none" xmlns="http://www.w3.org/2000/svg">
<g id="Group">
<path id="Vector" fill-rule="evenodd" clip-rule="evenodd" d="M1.03686 46.5184C5.40576 46.5601 13.0912 46.9329 17.0797 46.1835C22.0165 45.2564 24.8722 42.9627 25.2966 37.7547C25.3893 33.7465 24.6042 30.9698 22.6445 28.5773C21.8146 27.5644 20.725 26.7467 19.4395 25.9722C18.189 25.219 16.6454 24.8318 15.492 23.9989L25.3361 23.9374L25.3073 0.604671C21.2724 0.326015 14.4078 0.317663 10.3813 0.620616C-3.21512 1.64564 -0.41337 14.3074 2.03911 17.7264C4.67761 21.4052 6.7512 21.1895 11.3578 23.0665L0.191776 23.1659L0.245685 46.4007L1.0361 46.5176L1.03686 46.5184Z" fill="white"/>
<path id="Vector_2" fill-rule="evenodd" clip-rule="evenodd" d="M28.5001 28.479C28.4569 39.6814 34.257 45.638 45.7343 45.0025L45.4989 23.6295C51.9384 23.0046 55.4842 20.5506 57.1569 15.1521C57.7514 12.3443 57.6216 10.3102 57.6261 7.3915L45.5194 7.35278L45.4344 0.658203L28.2959 0.676426L28.5009 28.479H28.5001Z" fill="white"/>
</g>
</svg>
